<svg width="37" height="41" viewBox="0 0 37 41" fill="none" xmlns="http://www.w3.org/2000/svg">
<path d="M20.99 40.66C18.02 40.66 15.2517 40.1833 12.685 39.23C10.155 38.24 7.955 36.8467 6.085 35.05C4.215 33.2533 2.74833 31.145 1.685 28.725C0.658333 26.305 0.145 23.6467 0.145 20.75C0.145 17.8533 0.658333 15.195 1.685 12.775C2.74833 10.355 4.215 8.24666 6.085 6.45C7.99167 4.65333 10.21 3.27833 12.74 2.325C15.27 1.335 18.0383 0.839999 21.045 0.839999C24.3817 0.839999 27.3883 1.42667 30.065 2.6C32.7783 3.73666 35.0517 5.42333 36.885 7.66L31.165 12.94C29.845 11.4367 28.3783 10.3183 26.765 9.585C25.1517 8.815 23.3917 8.43 21.485 8.43C19.6883 8.43 18.0383 8.72333 16.535 9.31C15.0317 9.89666 13.73 10.74 12.63 11.84C11.53 12.94 10.6683 14.2417 10.045 15.745C9.45833 17.2483 9.165 18.9167 9.165 20.75C9.165 22.5833 9.45833 24.2517 10.045 25.755C10.6683 27.2583 11.53 28.56 12.63 29.66C13.73 30.76 15.0317 31.6033 16.535 32.19C18.0383 32.7767 19.6883 33.07 21.485 33.07C23.3917 33.07 25.1517 32.7033 26.765 31.97C28.3783 31.2 29.845 30.045 31.165 28.505L36.885 33.785C35.0517 36.0217 32.7783 37.7267 30.065 38.9C27.3883 40.0733 24.3633 40.66 20.99 40.66Z" fill="#58B449"/>
</svg>
