<svg width="365" height="38" viewBox="0 0 365 38" fill="none" xmlns="http://www.w3.org/2000/svg">
<path d="M20.2538 37.6102C17.5081 37.6102 14.9488 37.1695 12.576 36.2882C10.237 35.3729 8.20318 34.0848 6.4744 32.4238C4.74563 30.7629 3.38973 28.8137 2.4067 26.5765C1.45757 24.3393 0.983005 21.8817 0.983005 19.2038C0.983005 16.5259 1.45757 14.0683 2.4067 11.8311C3.38973 9.59385 4.74563 7.64474 6.4744 5.98376C8.23708 4.32278 10.2879 3.05162 12.6268 2.17029C14.9657 1.25506 17.525 0.79744 20.3046 0.79744C23.3893 0.79744 26.1689 1.3398 28.6434 2.42452C31.1518 3.47534 33.2535 5.03463 34.9483 7.10238L29.6603 11.9836C28.44 10.5938 27.0841 9.55995 25.5926 8.882C24.1011 8.17015 22.474 7.81423 20.7114 7.81423C19.0504 7.81423 17.525 8.08541 16.1352 8.62777C14.7454 9.17013 13.542 9.94977 12.5251 10.9667C11.5082 11.9836 10.7116 13.187 10.1353 14.5768C9.59298 15.9666 9.3218 17.5089 9.3218 19.2038C9.3218 20.8987 9.59298 22.441 10.1353 23.8308C10.7116 25.2206 11.5082 26.424 12.5251 27.4409C13.542 28.4578 14.7454 29.2375 16.1352 29.7798C17.525 30.3222 19.0504 30.5934 20.7114 30.5934C22.474 30.5934 24.1011 30.2544 25.5926 29.5764C27.0841 28.8646 28.44 27.7968 29.6603 26.3731L34.9483 31.2544C33.2535 33.3221 31.1518 34.8984 28.6434 35.9831C26.1689 37.0678 23.3723 37.6102 20.2538 37.6102Z" fill="#58B449"/>
<path d="M38.9346 25.8647V19.5089H53.3241V25.8647H38.9346ZM60.1244 37V1.40759H66.9378L82.09 26.5257H78.4799L93.3779 1.40759H100.14L100.242 37H92.5135L92.4626 13.2548H93.8863L81.9883 33.2374H78.2765L66.1243 13.2548H67.853V37H60.1244ZM124.5 37.6102C119.449 37.6102 115.5 36.2034 112.653 33.3899C109.805 30.5764 108.381 26.5596 108.381 21.3393V1.40759H116.619V21.0343C116.619 24.424 117.313 26.8646 118.703 28.3561C120.093 29.8476 122.042 30.5934 124.551 30.5934C127.059 30.5934 129.008 29.8476 130.398 28.3561C131.788 26.8646 132.483 24.424 132.483 21.0343V1.40759H140.618V21.3393C140.618 26.5596 139.194 30.5764 136.347 33.3899C133.5 36.2034 129.55 37.6102 124.5 37.6102ZM173.164 1.40759H181.401V37H173.164V1.40759ZM156.995 37H148.758V1.40759H156.995V37ZM173.774 22.4071H156.385V15.4412H173.774V22.4071ZM185.144 37L201.008 1.40759H209.144L225.059 37H216.415L203.398 5.57699H206.652L193.585 37H185.144ZM193.076 29.3731L195.263 23.119H213.567L215.805 29.3731H193.076ZM228.751 37V1.40759H236.988V37H228.751ZM255.964 37L240.608 1.40759H249.507L262.93 32.9323H257.693L271.32 1.40759H279.506L264.099 37H255.964ZM282.478 37V1.40759H290.715V37H282.478ZM299.162 37V1.40759H314.568C317.754 1.40759 320.5 1.93301 322.805 2.98383C325.11 4.00075 326.89 5.4753 328.144 7.40746C329.398 9.33962 330.025 11.6446 330.025 14.3226C330.025 16.9666 329.398 19.2546 328.144 21.1868C326.89 23.0851 325.11 24.5427 322.805 25.5596C320.5 26.5765 317.754 27.085 314.568 27.085H303.738L307.399 23.4749V37H299.162ZM321.788 37L312.89 24.085H321.686L330.686 37H321.788ZM307.399 24.3901L303.738 20.5258H314.11C316.653 20.5258 318.551 19.9834 319.805 18.8987C321.059 17.7801 321.686 16.2547 321.686 14.3226C321.686 12.3565 321.059 10.8311 319.805 9.74639C318.551 8.66167 316.653 8.11931 314.11 8.11931H303.738L307.399 4.20414V24.3901ZM344.128 15.7462H361.263V22.1529H344.128V15.7462ZM344.738 30.39H364.11V37H336.551V1.40759H363.449V8.01761H344.738V30.39Z" fill="white"/>
</svg>
